# xmcd CD database file
#
# Track frame offsets:
#	150
#	15195
#	30770
#	40650
#	54656
#	71420
#	86248
#	99434
#	111303
#	122546
#	136955
#	150785
#	160013
#	173644
#	187848
#	211532
#
# Disc length: 3029 seconds
#
# Revision: 0
# Processed by: cddbd v1.5.1PL0 Copyright (c) Steve Scherf et al.
# Submitted via: CDex 1.50
#
DISCID=ae0bd310
DTITLE=Hilly Billy Ranger and his Dancing Fiddle - Dancing With The Cowboys [CD2]
DYEAR=1999
DGENRE=Country
TTITLE0=5, 6, 7, 8
TTITLE1=The Locomotion
TTITLE2=Bye, Bye, Love
TTITLE3=Harper Valley PTA
TTITLE4=Strut Your Stuff
TTITLE5=I'd Rather Ride Around With You
TTITLE6=Blame It On Texas
TTITLE7=Stand Your Man
TTITLE8=She Lays It All On The Line
TTITLE9=If I Ain't Got You
TTITLE10=I Break For Brunettes
TTITLE11=Don't Be Cruel
TTITLE12=Walk On
TTITLE13=Honky Tonk Dancing Machine
TTITLE14=Blanket On The Ground
TTITLE15=Honky Tonk Twist
EXTD=YEAR: 1999
EXTT0=
EXTT1=
EXTT2=
EXTT3=
EXTT4=
EXTT5=
EXTT6=
EXTT7=
EXTT8=
EXTT9=
EXTT10=
EXTT11=
EXTT12=
EXTT13=
EXTT14=
EXTT15=
PLAYORDER=
